<?xml version="1.0" standalone="no"?><!DOCTYPE svg PUBLIC "-//W3C//DTD SVG 1.1//EN" "http://www.w3.org/Graphics/SVG/1.1/DTD/svg11.dtd"><svg xmlns:xlink="http://www.w3.org/1999/xlink" version="1.1" style="font-family:dosis, sans-serif;font-size:12px;" xmlns="http://www.w3.org/2000/svg" width="600" height="400"><desc>Created with Highcharts 4.2.7</desc><defs><clipPath id="highcharts-37"><rect x="1" y="1" width="578" height="310"></rect></clipPath></defs><rect x="1" y="1" width="598" height="398" fill="none" class=" highcharts-background"></rect><rect x="10" y="36" width="580" height="312" fill="#ffffff"></rect><rect x="10" y="36" width="580" height="312" stroke="#323436" stroke-width="2" fill="none"></rect><g class="highcharts-series-group"><g class="highcharts-series highcharts-series-0" transform="translate(10,36) scale(1 1)"><path fill="#d169d8" d="M 260.9918530718522 116.00000082965548 A 40 40 0 0 1 266.4548030206058 116.37368142248904 L 261 156 A 0 0 0 0 0 261 156 Z" stroke="#FFFFFF" stroke-width="1" stroke-linejoin="round" transform="translate(0,0)"></path><path fill="#45403e" d="M 266.49442660517764 116.37915603775815 A 40 40 0 1 1 260.9444408024771 116.00003858532398 L 261 156 A 0 0 0 1 0 261 156 Z" stroke="#FFFFFF" stroke-width="1" stroke-linejoin="round" transform="translate(0,0)"></path></g><g class="highcharts-markers highcharts-series-0" transform="translate(10,36) scale(1 1)"></g></g><text x="300" text-anchor="middle" class="highcharts-title" style="color:#000000;font-size:10px;font-family:'arial', sans-serif;font-weight:bold;text-transform:uppercase;fill:#000000;width:536px;" y="17"><tspan>The WebAIM Million - Accessibility analysis of 1 mio. home pages</tspan></text><g class="highcharts-data-labels highcharts-series-0" transform="translate(10,36) scale(1 1)" opacity="1"><path fill="none" d="M 270.3342018000084 86.16712455471423 C 265.3342018000084 86.16712455471423 264.7817215942932 94.14802460560404 264.0220613114347 105.12176217557752 L 263.2624010285762 116.095499745551" stroke="#d169d8" stroke-width="1"></path><path fill="none" d="M 250.6657981999916 225.83287544528577 C 255.6657981999916 225.83287544528577 256.2182784057068 217.85197539439596 256.9779386885653 206.87823782442248 L 257.7375989714238 195.904500254449" stroke="#45403e" stroke-width="1"></path><g style="cursor:pointer;" transform="translate(275,76)"><text x="5" style="font-size:20px;font-weight:bold;font-family:'arial', sans-serif;color:#000;text-shadow:none;fill:#000;text-rendering:geometricprecision;" y="23"><tspan>No errors according to WCAG 2: 2.2</tspan></text></g><g style="cursor:pointer;" transform="translate(-46,216)"><text x="5" style="font-size:20px;font-weight:bold;font-family:'arial', sans-serif;color:#000;text-shadow:none;fill:#000;text-rendering:geometricprecision;" y="23"><tspan>With accessibility errors: 97.8</tspan></text></g></g><g class="highcharts-legend" transform="translate(101,360)"><g><g><g class="highcharts-legend-item" transform="translate(8,3)"><text x="21" style="color:#333;font-size:9pt;font-weight:normal;cursor:pointer;font-family:'lucida grande','lucida sans unicode',arial,helvetica,sans-serif;text-transform:none;fill:#333;" text-anchor="start" y="15"><tspan>No errors according to WCAG 2</tspan></text><rect x="0" y="4" width="16" height="12" fill="#d169d8"></rect></g><g class="highcharts-legend-item" transform="translate(231.234375,3)"><text x="21" y="15" style="color:#333;font-size:9pt;font-weight:normal;cursor:pointer;font-family:'lucida grande','lucida sans unicode',arial,helvetica,sans-serif;text-transform:none;fill:#333;" text-anchor="start"><tspan>With accessibility errors</tspan></text><rect x="0" y="4" width="16" height="12" fill="#45403e"></rect></g></g></g></g><g class="highcharts-tooltip" display="none" style="cursor:default;padding:0;pointer-events:none;white-space:nowrap;" transform="translate(0,0)"><path fill="rgb(219,219,216)" fill-opacity="0.8" d="M 3 0 L 13 0 C 16 0 16 0 16 3 L 16 13 C 16 16 16 16 13 16 L 3 16 C 0 16 0 16 0 13 L 0 3 C 0 0 0 0 3 0"></path><text x="8" style="font-size:12px;color:#000000;fill:#000000;" y="20"></text></g><text x="590" text-anchor="end" style="cursor:pointer;color:#666;font-size:9px;fill:#666;" y="395">meta-chart.com</text></svg>