<?xml version="1.0" standalone="no"?><!DOCTYPE svg PUBLIC "-//W3C//DTD SVG 1.1//EN" "http://www.w3.org/Graphics/SVG/1.1/DTD/svg11.dtd"><svg xmlns:xlink="http://www.w3.org/1999/xlink" version="1.1" style="font-family:dosis, sans-serif;font-size:12px;" xmlns="http://www.w3.org/2000/svg" width="600" height="400"><desc>Created with Highcharts 4.2.7</desc><defs><clipPath id="highcharts-27"><rect x="1" y="1" width="578" height="310"></rect></clipPath></defs><rect x="1" y="1" width="598" height="398" fill="none" class=" highcharts-background"></rect><rect x="10" y="36" width="580" height="312" fill="#ffffff"></rect><rect x="10" y="36" width="580" height="312" stroke="#323436" stroke-width="2" fill="none"></rect><g class="highcharts-series-group"><g class="highcharts-series highcharts-series-0" transform="translate(10,36) scale(1 1)"><path fill="#d169d8" d="M 289.97759594759356 46.00000228155258 A 110 110 0 0 1 305.00070830666596 47.02762391184487 L 290 156 A 0 0 0 0 0 290 156 Z" stroke="#FFFFFF" stroke-width="1" stroke-linejoin="round" transform="translate(0,0)"></path><path fill="#45403e" d="M 305.1096731642385 47.04267910383493 A 110 110 0 1 1 289.8472122068121 46.00010610964094 L 290 156 A 0 0 0 1 0 290 156 Z" stroke="#FFFFFF" stroke-width="1" stroke-linejoin="round" transform="translate(0,0)"></path></g><g class="highcharts-markers highcharts-series-0" transform="translate(10,36) scale(1 1)"></g></g><text x="300" text-anchor="middle" class="highcharts-title" style="color:#000000;font-size:10px;font-family:'arial', sans-serif;font-weight:bold;text-transform:uppercase;fill:#000000;width:536px;" y="17"><tspan>The WebAIM Million - Accessibility analysis of 1 mio. home pages</tspan></text><g class="highcharts-data-labels highcharts-series-0" transform="translate(10,36) scale(1 1)" opacity="1"><path fill="none" d="M 304.6684036000168 16.334249109428473 C 299.6684036000168 16.334249109428473 299.1159233943016 24.31514916031827 298.3562631114431 35.28888673029175 L 297.59660282858465 46.26262430026523" stroke="#d169d8" stroke-width="1"></path><path fill="none" d="M 275.3315963999832 295.66575089057153 C 280.3315963999832 295.66575089057153 280.8840766056984 287.68485083968176 281.6437368885569 276.7111132697083 L 282.40339717141535 265.7373756997348" stroke="#45403e" stroke-width="1"></path><g style="cursor:pointer;" transform="translate(310,6)"><text x="5" style="font-size:20px;font-weight:bold;font-family:'arial', sans-serif;color:#000;text-shadow:none;fill:#000;text-rendering:geometricprecision;" y="23"><tspan>?: 2.2</tspan></text></g><g style="cursor:pointer;" transform="translate(197,286)"><text x="5" style="font-size:20px;font-weight:bold;font-family:'arial', sans-serif;color:#000;text-shadow:none;fill:#000;text-rendering:geometricprecision;" y="23"><tspan>?: 97.8</tspan></text></g></g><g class="highcharts-legend" transform="translate(256,360)"><g><g><g class="highcharts-legend-item" transform="translate(8,3)"><text x="21" style="color:#333;font-size:9pt;font-weight:normal;cursor:pointer;font-family:'lucida grande','lucida sans unicode',arial,helvetica,sans-serif;text-transform:none;fill:#333;" text-anchor="start" y="15">?</text><rect x="0" y="4" width="16" height="12" fill="#d169d8"></rect></g><g class="highcharts-legend-item" transform="translate(54.0625,3)"><text x="21" y="15" style="color:#333;font-size:9pt;font-weight:normal;cursor:pointer;font-family:'lucida grande','lucida sans unicode',arial,helvetica,sans-serif;text-transform:none;fill:#333;" text-anchor="start">?</text><rect x="0" y="4" width="16" height="12" fill="#45403e"></rect></g></g></g></g><g class="highcharts-tooltip" display="none" style="cursor:default;padding:0;pointer-events:none;white-space:nowrap;" transform="translate(0,0)"><path fill="rgb(219,219,216)" fill-opacity="0.8" d="M 3 0 L 13 0 C 16 0 16 0 16 3 L 16 13 C 16 16 16 16 13 16 L 3 16 C 0 16 0 16 0 13 L 0 3 C 0 0 0 0 3 0"></path><text x="8" style="font-size:12px;color:#000000;fill:#000000;" y="20"></text></g><text x="590" text-anchor="end" style="cursor:pointer;color:#666;font-size:9px;fill:#666;" y="395">meta-chart.com</text></svg>