<svg width="23" height="23" xmlns="http://www.w3.org/2000/svg" title="simplabs" class="Header_5f3a2__logo-svg">
  <g fill="none" fill-rule="evenodd" class="">
    <g fill="#007DF6" class="Header_5f3a2__logo-image">
      <path d="M13.109 13.417v9.391c3.29-.3 6.3-1.94 8.279-4.512l-8.28-4.88z" class=""></path>
      <path d="M22.907 16.443a10.88 10.88 0 0 0 1.24-5.017C24.16 5.53 19.378.54 13.2 0v10.843l9.708 5.6zM1.214 6.441A10.873 10.873 0 0 0 0 11.414c.004 5.88 4.774 10.85 10.935 11.394V12.06l-9.72-5.62z" fill-rule="nonzero" class=""></path>
      <path d="M11.039 9.392V0c-3.298.302-6.31 1.95-8.28 4.526l8.28 4.866z" class=""></path>
    </g>
  </g>
</svg>
